<svg id="b" xmlns="http://www.w3.org/2000/svg" viewBox="0 0 240 240">
  <defs>
    <style>
      .d{fill:#fe9714;}
      .e{fill:#fff;fill-rule:evenodd;}
      .f{fill:#533a98;}
    </style>
  </defs>
  <g id="c">
    <rect class="f" x="0" y="0" width="240" height="240" rx="8" ry="8"/>
    <path class="d" d="M32.18,22.92c-11.44,0-22.14.25-32.18.7v4.3c10.53-.49,22.1-.86,34.7-.86,86.71,0,166.84,10.12,166.84,26.78,0,14.98-62.73,26.89-144.12,28.21-20.36.24-39.79-.18-57.42-1.32v22.35c18.47,1.12,38.3,1.72,59,1.24,96.11-1.82,170.08-19.55,170.08-41.82,0-24.64-94.54-39.58-196.9-39.58"/>
    <path class="e" d="M222.12,127.91v55.27h-6.18l-35.76-46.56v46.61h-6.04v-55.21h6.11l35.49,46.33.72.84v-47.29h5.66ZM134.68,124.63c18.95,0,34.28,14,34.28,31.08s-15.33,31.01-34.28,31.01c-15.01,0-27.71-8.69-32.41-20.8-2.27.03-4.56.12-6.88.12-8.49,0-16.54-.58-23.27-1.48v13.82l30.37.06v4.83h-36.27v-19.72c-9.24-1.82-15.14-4.47-15.14-7.5s5.91-5.66,15.14-7.47v-17.68c-.37-1.05-1.38-.25-1.84.17l-39.89,52.12h-6.53l1.15-1.47,40.84-53.47.59-.05h41.67v5.05h-30.1v14.28c6.73-.88,14.78-1.42,23.27-1.42v1.07c-8.81,0-16.85.56-23.27,1.48v10.71c6.43.87,14.46,1.43,23.27,1.43,1.87,0,3.6,0,5.41-.03-.31-1.69-.5-3.39-.5-5.06,0-17.08,15.38-31.08,34.38-31.08M66.22,158.29v-8.62c-5.23,1.22-8.41,2.73-8.41,4.33s3.18,3.11,8.41,4.29M134.68,181.09c15.49,0,28.14-11.4,28.14-25.38s-12.66-25.36-28.14-25.36-28.11,11.33-28.11,25.36c0,1.57.19,3.22.47,4.76,15.07-.92,25.96-3.48,25.96-6.47,0-2.8-9.32-5.22-22.63-6.27l.58-1.03c16.78,1.48,28.71,5.08,28.71,9.34,0,4.5-13.03,8.26-30.85,9.48,4.23,9.11,14.24,15.56,25.87,15.56M63.42,214.18v-5.49l-.06-.4-.1-.21c-.31-.42-.23-.6-.79-1.19l-.27-.16-.28-.13-.19-.24-.37-.12c-.74-.55-.87-.47-1.63-.8l-.4-.07-.4-.29-.41-.03-.82-.12-.91-.27-.81-.22-.92-.05-.9-.23-.88-.13.02-.12.28-.17.18-.15.3-.23.1-.08.25-.12.22-.03.23-.2.25-.12.32-.08h.2l.36-.09c.45-.04.87.1,1.35.17l.32.12.34.2.39.1.3.14c.78.2,1.64.6,2.41.87h1.56l.17-.17.29-.16.17-.17.32-.05.02-.1.2-.12v-.1s.07-.08.07-.08l.12-.12.1-.03.12-.2v-.28l.13-.22.05-.08v-.16l.15-.13v-.68h-.15v-.06l-.1.06-.08.07-.35.14-.06.16h-.01l-.21.14-.22.17-.18.05-.25.07-.18.02h-.55l-.4-.02-.3-.07-.37-.05-.3-.21-.17-.1h-.27l-.32-.2c-1.51-.51-1.87-.74-3.54-.67l-.34.05-.37.06-.39.1-.27.15h-.3l-.29.15-.21.17-.29.2-.32.1-.34.21-.26.13-.25.16-.17.15-.21.24-.23.1-.18.32c-.57.2-.86.8-1.19,1.29v.22l-.15.14v.13h.15l.16.12h.06c1.2.21,1.67.52,3.22.6l.75.15.89.18c.69.2,1.87.39,2.38.76l.3.12.39.15.26.28h.22c.45.58.93.93.85,1.69v5.61h-.07l-.03.15v.23l-.11.06-.12.03h-.13l-.05.1h-3.99l-.13-.1h-.15l-.04-.03v-.06h-.09l-.06-.23v-7.44h-.16s-.12-.19-.12-.19l-.09-.1h-1.29l-.18.1-.28.18h-.17s-.23.01-.23.01l-.05.25-.13.15-.05.06-.1.05v.08l-.06.05-.1.14v.09l-.02.07v7.75l.02.02.1.17.06.06.03.11.12.02h.17l.23.1.28.07h7.68l.28-.07.37-.1h.19l.28-.02.14-.11.13-.06c.59-.25.81-.79.89-1.35l.06-.27v-.4ZM67.93,203.72l.02.17.04.16.1.17.1.15v.05l.16.22.05.15.06.12h.35v.13h.16l.17.03h.74l.2-.03h.21l.13-.13h.31v-.12s.16-.15.16-.15v-.22l.13-.05.09-.15v-.33l.1-.17v-.27l-.1-.1v-.15l-.09-.09v-.2l-.13-.2-.15-.2-.07-.1h-.14l-.15-.08-.15-.04-.24-.12h-1.02l-.16.12v.04l-.22.08h-.14l-.06.1-.05.2h-.16v.2l-.1.2-.1.09-.04.15-.02.1v.27ZM81.94,201.57v9.34l-.06.17v.25l-.15.07v.07l-.02.08.17.05.15.17.2.08.09.07.12.23.09.12.27.13.05.17.09.15.13.13.05.2.07.23.02.11v.22l.08.21v.42l-.08.28-.02.22-.07.32-.05.24-.22.18-.15.16-.18.29-.07.07-.12.02-.09.18h-.09l-.11.05-.08.13h-.24l-.21.17-.12.04h-.19l-.15.04h-.18l-.1.11h-.81l-.07-.11-.24-.04h-.13l-.07-.04h-.18l-.25-.17h-.07l-.07-.02-.07-.12-.22-.05-.06-.02-.18-.16-.07-.02-.11-.16-.09-.2-.27-.16-.13-.32-.05-.14-.08-.29-.1-.29v-.21l-.04-.28-4.26,2.24c-.73.28-1.4.48-2.18.36l-.15-.07v-.1h-.32l-.13-.02-.07-.12-.14-.05-.1-.02-.05-.16-.06-.02-.09-.16-.05-.03-.02-.17v-.12l-.04-.14-.06-.08v-8.78h-.11l-.28-.17h-.55l-.22-.04h-.1l-.05-.08-.21-.08h-.17l-.07-.1-.1-.09-.19-.08-.08-.1-.16-.15-.14-.05-.1-.16v-.07l-.07-.09-.06-.2-.06-.03-.05-.13-.12-.12v-.14l-.08-.22-.05-.05-.14-.15v-1.08l.18-.34.08-.32.12-.19.11-.2.1-.05.02-.21.1-.1h.11l.19-.15v-.13h.08s.19-.08.19-.08l.18-.14h.06l.21-.1.16-.04.1-.1h.14l.22-.06h.07l.16-.05h.39c.45,0,.8-.01,1.24.11h.07l.16.1.13.04.09.1h.1l.22.14.16.08.25.29.21.1.12.27.04.2.12.19.13.32.07.34.07.21v10.82l.07.06v.08l.04.07v.06l.09.07.09.07h.43l.2-.07.06-.07.18-.06,4.21-2.15.09-.09.18-.18.18-.05.06-.15h.05v-.17s.18-.05.18-.05v-8.83l.07-.2v-.19l.07-.16v-.08l.06-.05v-.17s.01-.14.01-.14h.13l.12-.07.06-.09.12-.15.2-.13.24-.08.07-.1.35-.04.28-.1h.92l.05.1.17.04.02.1h.15v.14l.06.08v.13M80.08,212.7h-.26l-.2.13h-.13l-.07.03-.12.16-.06.09h-.25s-.01.16-.01.16l-.09.1v.22l-.07.07v.13l-.07.05v.31l.07.06v.15l.07.12v.07l.06.16v.11s.26.18.26.18l.06.04.12.1h.07l.13.14.2.02.12.05h.78l.13-.05.18-.02.09-.14h.06l.19-.1.12-.04.05-.18.17-.11v-.16l.02-.07v-.12l.15-.15v-.42l-.15-.13v-.07l-.02-.22v-.1l-.17-.16h-.05s-.12-.1-.12-.1l-.19-.16-.06-.03h-.09l-.18-.13h-.77ZM90.83,213.81l-.05-.21-.1-.19-.03-.13-.15-.15h0s-.14-.25-.14-.25l-.14-.03-.1-.14-.05-.07-.17-.08-.18-.06-.17-.09c-.52-.02-.77-.08-1.25.15l-.09.08-.14.07v.14l-.27.03-.04.25h-.01s-.13.15-.13.15l-.1.13v.9l.1.13.13.14v.06s.05.2.05.2l.27.12v.1l.14.1h.25l.21.16h.87l.17-.16h.35l.05-.1.1-.1.14-.12.14-.2v-.06l.15-.14.03-.13.1-.15.05-.16v-.2ZM90.79,202.41h-.66c-1.2.21-2.09.7-3.14,1.32l-.19.28-.3.36c-.26.46-1.13,1.01-1.64.99l-.2-.09-.1-.2h-.13l-.03-.03v-.12l.16-.13.1-.36.2-.21.13-.33.33-.37.3-.32.22-.1.25-.29.13-.1.17-.24.3-.15.3-.16.18-.13c1.24-.74,1.83-.8,3.2-1.14l.42-.05h1.21c1.17-.12,2.21.4,3.34.5l.19.07h.4l.2-.07h.39l.14-.15h.25l.09-.1.16-.14.02-.07.12-.05v-.08l.07-.15v-.14h.1v-.95l-.17-.09v-.07l-.12-.1-.09-.18-.16-.1v-.06s-.01-.1-.01-.1v-.14h.09l.08-.07h.21l.07-.11h.1l.28-.03.04.03c.33.03.65.21,1.02.22l.13.1.12.1h.1l.13.17.07.03.16.19.18.09.03.13.07.1c-.05.86.2,1.18-.5,1.8l-.13.13-.1.16h-.25c-.42.45-1.35.47-2,.69h-.13l.18.11.09.2.25.19c1.3,1.88.47.72,1.12,2.73v.41l.02.31v9.02l-.02.15v.11l-.17.2-.02.17-.09.17-.06.02-.18.06-.1.12h-.22l-.17.17-.13.04h-.24l-.25.03h-.15c-.96.02-.6-.12-1.34-.46l-.18-.17-3.63-8.42-.1-.28h-.14l-.22-.3-.07-.11h-.14l-.03-.04h-.15c-.2-.03-.67-.02-.87.04h-.08v.11h-.1l-.13.1-.03.19-.03.23-.12.05v.3l-.14.2v2.9h.45l.1.1h.35s.22.01.22.01v.04l.25.15.14.05.15.07.12.07h.05l.3.13.16.25.28.31.12.11.09.3.21.23v.09l.12.16.03.09v.47l.09.21v.2l-.09.16v.27l-.05-.16v-5.07c.03-.56.09-1.1.2-1.65l.1-.19.1-.1v-.15l.19-.12c.27-.4.55-.93,1.05-1.02l.05-.12.27-.05.04-.1.2-.07h.16l.21-.09h.3l.02-.2h1.43l.22.2h.17l.3.09h.16l.28.07.12.16.3.12.23.18.06.16h.13l.08.19v.08l.25.05v.24l.06.13.21.12v.15c.49,1.57,1.51,3.35,2.15,4.92l.1.29v-6.67l-.1-.26v-.23l-.07-.12-.1-.27v-.43l-.15-.12-.03-.21-.15-.16-.12-.05-.07-.16-.15-.18-.18-.09-.1-.05-.15-.07-.16-.2-.18-.03-.12-.12-.2-.07h-.2l-.21-.09-.06-.07-.46-.08-.4-.07h-1.1ZM87.76,195.11h.13c2.94.18,5.15.29,8.03.93h.2l-.23-.22-.19-.3-.17-.3c-.42-.49-.87-.9-1.28-1.4l-.4-.13-.3-.16-.32-.15-.42-.2h-.05l-.25-.03-.22-.12h-.15l-.14-.07h-1.17l-.17.07h-.22l-.21.12h-.11l-.22.03-.25.12-.32.13-.31.18-.02.12-.3.1-.21.18-.16.22-.2-.25-.22.36-.15.27h.01ZM91,196.58l-.64-.03c-1.53-.26-3.75-.1-5.37-.15h-.06l.06-.54c.87-.98,1.33-2.25,2.52-2.91l.23-.11.05-.35h.27c1.63-1.35,5.6-1.24,7.02.35l.43.11.02.22.34.2c.31.35,1.25,1.35,1.39,1.73l.07.23.22.27c.34.47.57,1.07.54,1.66l.17.24.02.34h-.19c-1.73-.61-3.61-.6-5.37-1.05l-1.06-.22h-.69ZM102.93,203.72v.5l.09.15.07.05.12.22.1.15.12.12h.3l.1.13c.32.03.47.03.8.03h.31l.05-.03h.26l.11-.13h.19l.12-.12.13-.15.13-.22.06-.05.04-.15v-.17l.09-.16v-.54l-.09-.15-.04-.09-.06-.2-.02-.2h-.11l-.13-.2-.12-.1h-.08l-.17-.08-.14-.04-.21-.12h-1.02l-.09.12-.1.04-.21.08h-.09l-.12.1-.1.2h-.12l-.07.2-.09.2v.34l-.05.22.05.05ZM116.76,201.57v9.83l-.04.07v.08l.04.05.16.17.27.08.06.07.17.23.07.12.21.13.04.17.17.15.02.13.15.2.1.23c-.03.45.08.47.05.96l-.05.28v.22l-.1.32-.17.24-.02.18-.19.16-.21.29-.17.07-.07.02-.06.18h-.13l-.14.05-.05.13h-.39l-.1.17-.1.04c-.87.02-.27.19-.97.15h-.37l-.22-.11-.16-.04h-.07l-.19-.04h-.19l-.13-.17h-.01l-.22-.02-.06-.12-.16-.05-.04-.02-.22-.16-.1-.02-.07-.16-.13-.2-.2-.16-.17-.32v-.14l-.18-.29-.08-.29v-.49l-4.33,2.24-.32.17c-.63,0-.46.27-1.52.23l-.19-.04h-.13l-.13-.07-.12-.1h-.19l-.07-.02-.14-.12-.1-.05-.11-.02v-.16l-.15-.02-.02-.16v-.03l-.15-.17v-.12s-.09-.14-.09-.14v-8.86h-.21l-.12-.17h-.65l-.1-.04h-.18l-.21-.08-.16-.08h-.05l-.12-.1-.15-.09-.03-.08-.18-.1-.06-.15-.11-.05-.18-.16-.03-.07-.05-.09-.12-.2-.07-.03-.07-.13c-.05-.35-.3-.2-.24-.86l-.1-.16v-.54l.1-.21v-.34l.1-.32.13-.19.14-.2.17-.05v-.21l.1-.1.11-.15.12-.13h.14s.06-.08.06-.08l.13-.14h.12l.16-.1.12-.04.22-.1h.09l.21-.06h.1l.25-.05h.97l.19.05h.11l.19.06h.12l.13.1.13.04.1.1h.2l.07.14.25.08c.54.57.73.58.96,1.37l.03.34.09.21c0,3.65-.29,7.37.02,10.96v.13l.13.07.09.07h.33l.2-.07.21-.07.03-.06,4.29-2.15.13-.09.18-.18.22-.05.04-.15h.16v-.22l.03-.08v-.33l.04-.15v-8.57l.07-.08v-.24l.16-.05v-.31h.1l.04-.07.06-.09c.56-.26.17-.32,1.05-.5l.27-.1h.89l.1.1v.04h.25l.04.1v.36M115.15,212.7h-.44l-.16.13h-.07l-.19.03-.19.16v.09h-.13s-.01.16-.01.16l-.09.1c-.05.25-.13.4-.17.63l.04.16v.06l.07.15v.12l.07.07.09.16v.11s.15.18.15.18v.04l.19.1h.19l.07.14.16.02c.32.09.88.08,1.2-.02l.09-.14h.19l.16-.1v-.04s.12-.18.12-.18v-.11l.25-.16v-.07l.04-.12v-.71l-.04-.07v-.22l-.25-.1v-.16h-.1s-.01-.1-.01-.1l-.16-.16-.19-.03h-.09l-.12-.13h-.65ZM121.14,203.73l.09.16v.16l.12.17v.15l.12.06.03.22.06.14.13.13h.3l.19.12h.09l.08.03h.86l.19-.03h.1l.16-.12h.19l.12-.13.19-.14.12-.22v-.06l.07-.15.09-.17v-.85l-.09-.1-.07-.2v-.19h-.18l-.13-.2c-.76-.5-.73-.32-1.63-.35h-.08l-.09.13-.19.04-.1.08h-.2l-.13.11-.06.2h-.03l-.12.19v.2l-.12.1v.14l-.09.11v.27ZM135.3,214.85v.12c.02.3-.05.63-.25.87v.17l-.16.02-.15.17-.21.17-.25.02-.22.17-.17.04-.31.03-.18.12h-.42l-.23-.12-.17-.03-.1-.04-.03-.17h-.1v-.02l-.12-.17v-12.31l-.09-.16v-.27l-.12-.11v-.14l-.13-.07-.25-.2v-.03h-.18l-.11-.09h-.26l-.13.09h-.15l-.06.03-.16.17-.09.03-.03.07-.16.14-.07.11-.06.27-.07.16-.07.25-3.73,11.38-.05.27c-.77.91-1.38.87-2.52.8l-.04-.04h-.16l-.07-.17h-.04l-.19-.02-.11-.11-.05-.06-.13-.17v-9.5h-.29l-.19-.16c-.43.02-.51-.02-.89-.05l-.09-.08-.12-.08h-.12l-.09-.1-.21-.08-.1-.08-.07-.1-.12-.14-.1-.21-.3-.16v-.2l-.14-.03v-.12l-.13-.13v-.13l-.06-.22-.07-.06-.05-.15v-.17l-.09-.16v-.55l.09-.21.12-.34.06-.32.13-.19.14-.21.04-.27.35-.1.2-.29.15-.08.16-.15h.2l.05-.1c.67-.34,2.42-.38,3.04.1h.18v.15l.17.07h.13s.07.15.07.15c1.12,1.07.58,1.13,1,2.11v8.15l2.59-8.49.27-.24c-.02-.77,1.02-1.82,1.74-2.01l.25-.14.2-.06c.83-.03,1.75-.2,2.52.2l.31.1.06.15h.12l.2.08.09.14v.15h.19l.21.14v.18c.5.45.6,1.19.57,1.85v10.95ZM144.61,212.39h-.22l-.15.02-.15.09-.16.05-.16.08-.15.07-.04.13-.19.03-.14.25h0s-.05.16-.05.16v.14l-.08.19-.05.21v.2l.05.17.08.14v.13l.05.13v.07l.14.2.19.12.04.1.15.1h.32l.15.16h1l.12-.16h.37l.08-.1.14-.1.15-.12v-.2l.1-.07c.27-.38.3-.89.07-1.3l-.07-.15h-.1v-.29l-.29-.13v-.07l-.18-.08-.19-.05-.07-.09-.25-.02h-.5ZM145.36,210.85v-.68c-.09-1.66.45-3.22-1.4-4.01l-.36-.19-.23-.08-.27-.25-.33-.05-.3-.15-.34-.07h-.35l-.67-.29-.63-.03-.62-.12h-1.16l-.38-.13h-.27l-.13-.14h-.24v-.43l.07-.17.16-.17v-.16l.13-.05.12-.22.15-.1.03-.15.25-.09.2-.29.13-.1c.42-.53,1.08-.77,1.62-1.15l.17-.13.4-.08c.62-.41,1.39-.48,2.12-.5h.85l.45.05.36.06.35.14.3.1.27.08.29.13.17.1.24.2h.28l.2.1.3.22c.36.13,1.41.21,1.76.05l.21-.05.21-.17.1-.15h.17l.19-.15.17-.15.12-.07.12-.06v.06h.07v.69l-.07.13v.25l-.12.22-.03.08-.09.19-.07.2-.04.03-.06.12-.19.09-.05.1-.12.12-.1.1-.21.05-.21.16-.18.17-.36.17h-1.43l-.22-.08-.36-.13-.41-.13-.29-.16-.27-.15-.3-.12-.35-.1-.2-.15-.41-.09-.31-.2-.21-.11-.2-.08h-.5l-.1-.08h-.57l-.25.08h-.3l-.17.08-.33.02-.17.09-.19.23-.26.06-.09.06-.2.19-.22.12-.1.15.8.16.88.13.81.21c.64.07,3.23.75,3.6,1.21l.3.15.17.13.32.17.15.16.22.19.13.12.26.24.06.25.22.16.11.29.08.25v.26l.1.27v5.88l-.1.22c.06.59-.33.95-.62,1.41l-.11.05-.13.2-.07.16h-.21l-.09.17-.2.02-.12.06-.07.12-.18.02h-.22l-.1.17-.15.04c-.35-.05-.67.12-1,.15h-.51l-.16-.11h-.15l-.2-.04h-.06l-.26-.04-.04-.17h-.32l-.17-.19-.28-.17-.18-.09-.2-.29-.25-.16-.05-.32-.14-.14-.1-.18-.05-.2v-.2l-.12-.13v-.9l.12-.14v-.25l.05-.16.1-.03.07-.13.07-.15v-.16l.05-.02.25-.22.2-.31.18-.14.28-.23.17-.07.32-.12.3-.15.26-.04c.51.04.4-.15.98-.11h.25v-.13ZM142.6,194.01v.15l.07.17v.16l.11.07v.15c.23.22.2.39.57.42l.22.11v.04l.19.08h.63l.05-.08.26-.04h.07l.13-.11.15-.05.06-.14.13-.08.13-.09v-.05l.17-.15v-.32l.09-.1v-.51l-.09-.15v-.16l-.11-.12-.07-.03-.13-.2v-.1h-.13l-.15-.15-.19-.03-.07-.17h-.31s-.14,0-.14,0h-.67s-.22,0-.22,0l-.1.17-.05.03-.13.15h-.1l-.19.17v.13l-.1.03v.2s-.07.16-.07.16v.16l-.12.13.12.17ZM146.41,195.54l.26.03h2.39l.21-.03.21-.1h.1l.25-.09h.38l.22-.12.16-.14.16-.03.12-.14.1-.08.16-.14.07-.15.22-.07.14-.16.15-.17v-.15l.1-.17.07-.13.13-.16.06-.16.05-.2v-.16l.13-.17c.07-1.23-.18-.51-.13-1.36v-.32h.83l.15.2.16.08.09.04.17.1.08.14.1.05.18.11.12.21v.04l.02.17.12.17.04.18.12.19v1.09l-.17.2v.18l-.15.22v.2l-.12.17-.18.17-.14.17-.13.08-.18.22-.07.12-.15.14-.18.04-.28.18-.09.12-.22.13-.25.11-.2.03-.26.15-.22.11-.21.11h-.35l-.2.14-.49.13-.62.06-.51.15-.62.06-.58.03h-.62l-.55-.03-.65-.06-.32-.06-.27-.09h-.32l-.28-.06-.32-.03-.32-.1-.2-.14h-.36l-.32-.22-.18-.03-.17-.12c-.62-.31-.79-.57-1.22-1.09l-.05-.25-.29-.25c.06-1.22-.22.02-.16-1.22l.16-.19v-.4l.13-.07.16-.1.05-.36.12-.18.22-.2.13-.22h.25l.27-.16.22-.07.17-.17h.18s.32-.05.32-.05h1.13l.26.04.28.03.2.14.3.12.22.11.15.21.18.13c.78,1,.69,1.92.22,3.02l-.17.08-.05.09.14.1ZM154.05,203.73v.16l.12.17v.17l.17.15v.27l.1.15.18.13h.31l.13.12h.1l.11.03h.82l.16-.03h.13l.12-.12h.26l.1-.13.15-.15.15-.22v-.06l.02-.15.14-.17v-.85l-.16-.09v-.2l-.13-.19h-.02l-.15-.2-.1-.11h-.1l-.15-.08-.12-.04-.28-.12h-.95l-.1.12c-1.12.3-.41.31-1.01,1.06v.1l-.03.22.03.05ZM165.99,202.8v-.39l.04-.08v-.24l.05-.05.1-.17.07-.14.06-.07.11-.08.19-.15.08-.13c.83-.36.97-.34,1.83-.32l.19.1.13.04v.1h.1v14.43l-.09.17v.19s-.06.02-.06.02l-.17.17-.11.17-.14.02h-.15l-.06.17c-.51.13-1.05.06-1.57,0l-.11-.17h-.07l-.17-.13-.18-.06-.05-.2-.27-.16-.08-.2-.03-.25-.22-.22-.4-1.3-.6-1.48-.46-1.56-.52-1.56-.45-1.47-.4-1.07-.16-.76-.15-.33-.04.33-.22.76-.47,1.07-.37,1.47-.47,1.56-.5,1.56-.49,1.48-.43,1.3-.15.22-.12.25-.15.2-.11.16-.08.2-.16.06-.14.13h-.22l-.13.17-.17.04h-.18l-.32.03h-.29l-.12-.03h-.22l-.18-.04-.02-.17h-.1l-.13-.02-.15-.17-.07-.17-.15-.02v-.19l-.02-.17-.07-.25-.03-.22v-8.64h-.2l-.22-.16h-.55l-.11-.05h-.26l-.1-.07-.12-.08h-.19v-.11l-.11-.08-.19-.08-.14-.1-.05-.15-.17-.05-.09-.15-.07-.07-.09-.09-.06-.2-.09-.03v-.12c-.24-.36-.45-.75-.38-1.19l-.05-.05.05-.33c-.06-.62.54-1.14.7-1.53v-.1h.17l.09-.15.09-.13h.19s.1-.08.1-.08l.11-.15h.15l.17-.1.08-.04.15-.1h.2l.15-.06c.41-.07.55-.05.97-.05h.37l.23.05h.02c.39.07.73.21,1.06.45l.17.08.23.28.15.1.12.27.15.2.15.19.13.32v.34l.08.21.11.33v7.78l.02-.34.32-.91.37-1.27.52-1.65.47-1.5.55-1.57.34-1.28.37-.77v-.35l.14-.1.04-.07.07-.13.15-.08h.27v.08l.09.13v.07l.14.1v.04l.02.23.1.08.24.77.42,1.28.57,1.57.5,1.5.55,1.65.42,1.27.2.91.23.34v-8.66ZM176.82,202.16h-.27l-.12.13-.19.04-.15.07-.14.07-.14.09-.09.16-.06.08-.02.11-.24.22c-.02.29-.12.59-.02.88v.21l.02.15.24.06.02.21.06.15.09.13h.14l.14.12h.15l.19.03.12.2h1.04l.15-.2.19-.03h.07l.15-.12h.19l.07-.13.12-.15v-.21l.15-.06v-.35l.06-.13v-.36l-.06-.18v-.21l-.15-.22v-.11l-.12-.08-.07-.16-.19-.09-.15-.07-.07-.07-.19-.04-.15-.13h-.77ZM172.42,204.37l.15-.27v-.21l.12-.21v-.22l.05-.19.06-.12.1-.31.07-.1.15-.25.15-.14v-.17l.22-.07.16-.22.13-.15h.24l.16-.15.15-.14.12-.07.25-.15h.25l.12-.1.12-.15h.19l.28-.06c.36-.1,1.29-.02,1.71-.05l.37.05.41.16.29.14.23.08c.64.31,1.33.85,1.38,1.62v.29l.14.25v.77l-.14.15v.42l-.08.13-.08.12-.1.03v.29l-.1.07-.1.1-.17.1-.03.07-.07.17-.27.16-.32.11-.21.16-.24.05h-.35l-.3.16-.33.07h-.6l-.24-.07-.23-.16h-.32l-.21-.05-.32-.16-.18-.11-.15-.16v.27l.12.07.02.13.13.16.04.2.02.13.26.15.06.1.21.19.22.23.1.05.23.11.07.06.12.06h.04c.8.23,1.84.12,2.66.08h.31l.03.05.07.09.1.06h.08v.13l.08.08v.28h-.08v.11l-.08.1-.1.07h-.1s-.22.09-.22.09l-.63.18-.5.24-.4.09-.3.1-.33.1-.27.13-.1.2h-.22l-.04.15-.12.08-.07.18-.23.15v.1l-.1.18c-.29.55-.46,1.17-.43,1.81v1.81l.02.14.07.06.12.2.03.11.07.07.12.03h.1v.1h5.73l.07-.1h.06l.13-.03v-.07h.06v-.38h.13v-.19c.27-4.01,0-8.04.02-12.06v-.17l.13-.07v-.05l.07-.17v-.15h.15l.05-.07c.51-.62,1.63-.87,2.37-.59l.18.04v.1l.03.15.11.07v13.15l-.14.27v.53l-.18.26-.13.17-.18.19-.11.02-.15.17-.27.06-.22.11-.21.02h-.16l-.38.11-.2.07h-8.97l-.22-.07-.24-.11h-.29l-.22-.02v-.17h-.15l-.15-.17-.07-.02v-.16l-.1-.2-.06-.11v-3.94l.06-.19.1-.31v-.24l.07-.28.3-.17v-.22l.22-.18.17-.24.25-.11.27-.23.15-.28h.3l.32-.26.25-.08-.12-.1-.24-.11-.28-.15-.22-.18-.15-.17-.27-.2-.25-.08-.09-.12-.08-.16-.22-.23h0s-.15-.3-.15-.3c-.42-.52-.48-1.29-.55-1.93l-.15-.15v-.55ZM183.91,194.75v-.07l-.05-.19-.06-.15v-.1l-.1-.1-.09-.12-.19-.06v-.12h-.13l-.13-.1c-.31-.19-.29-.08-.69-.11h-.41l-.15.08-.17.03-.1.1h-.2l-.12.12-.11.06v.12l-.05.1-.04.1-.16.15v.87l.16.08.04.14.05.05v.17l.11.07h.12l.2.14.1.05.17.04h.15l.07.08.13.07h.42l.15-.07.12-.08h.15l.06-.04.13-.05.13-.14.19-.07.09-.17.1-.05v-.14l.06-.08.05-.12v-.48ZM183.86,192.12l-.26.02-.19.1-.13.07-.13.09-.06.05-.1.02h.43s.28.01.28.01l.17.18.25.18h.2l.2.17.17.16.23.12v.15c.58.63.44.48.53,1.21l.11.07v.17l-.11.31-.04.2v.25l-.18.18-.1.3-.22.25-.11.17-.14.22-.27.13-.22.2-.25.09-.22.15-.31.04-.23.11c-.97-.02-.95.09-1.84-.15l-.11-.04-.28-.13-.27-.07-.28-.2-.17-.13-.14-.25-.16-.15-.18-.32-.03-.22-.1-.18-.17-.25-.02-.2v-.53l.02-.15v-.42l.17-.18.1-.12v-.13l.03-.16.07-.1.1-.13.08-.12.08-.16.27-.17.09-.36.29-.09.2-.27.23-.03.15-.21.48-.12.32-.12.13-.16h.2s.22-.05.22-.05l.19-.08.52-.2.53-.2.59-.22c.54-.15,2.57-.52,2.92-.94l.2-.1h.07l.1-.18.09-.12.12-.15v-.52h.69l.08.07.05.05.3.17.1.13v.07l.02.09v.1l.14.04v.26c.1.71-.32,1.43-.9,1.73l-.25.05-.16.03-.26.14-.17.08h-.28l-.3.04h-.35l-.52.08-.21.03h-1.45l-.39.21h-.25Z"/>
  </g>
</svg>
